<?xml version="1.0" encoding="utf-8"?>
<svg version="1.1" xmlns="http://www.w3.org/2000/svg" viewBox="0 0 516.4 516.4" xml:space="preserve">
<style type="text/css">
	.lock { fill:#B1B1B1; }
</style>
<path class="lock" d="M401.6,210.4v-66.9C401.6,65,336.6,0,258.2,0S114.8,65,114.8,143.4v66.9c-32.5,0-57.4,24.9-57.4,57.4v95.6
	c0,84.1,68.8,153,153,153H306c84.1,0,153-68.9,153-153v-95.6C459,237.1,434.1,210.4,401.6,210.4z M273.6,360.3v74
	c0,9.3-6.2,14.4-15.4,14.4c-9.2,0-15.4-5.2-15.4-14.4v-74c-18.5-6.2-30.9-24.7-30.9-43.2c0-24.7,21.6-46.3,46.3-46.3
	s46.3,21.6,46.3,46.3C304.5,338.7,292.1,354.1,273.6,360.3L273.6,360.3z M344.3,210.4H172.1v-66.9c0-47.8,38.3-86.1,86.1-86.1
	s86.1,38.3,86.1,86.1L344.3,210.4L344.3,210.4z"/>
</svg>
